<svg xmlns="http://www.w3.org/2000/svg" width="158" height="38" viewBox="0 0 158 38">
    <g fill="none" fill-rule="evenodd">
        <g>
            <g>
                <g>
                    <g fill="#000">
                        <path d="M13.79 7.987L5.61 7.987 5.61 0 0 0 0 21.003 5.61 21.003 5.61 12.492 13.79 12.492 13.79 21.003 19.401 21.003 19.401 0 13.79 0zM25.007 21.003L30.617 21.003 30.617 0 25.007 0zM45.323 15.034L40.735 0 34.545 0 42.393 21.003 48.086 21.003 55.935 0 49.883 0zM64.99 12.492L73.364 12.492 73.364 8.263 64.99 8.263 64.99 4.228 74.497 4.228 74.497 0 59.877 0 59.877 21.004 74.884 21.004 74.884 16.775 64.99 16.775zM86.225 10.198h-1.547V4.063h1.603c2.376 0 3.565 1.013 3.565 3.04 0 2.063-1.207 3.095-3.62 3.095m8.138.207c.58-.967.87-2.05.87-3.247 0-2.248-.723-4.003-2.169-5.265C91.62.631 89.606 0 87.027 0h-7.655v21.003h5.306V14.26h2.819l3.675 6.743h6.108l-5.14-8.208c.902-.626 1.644-1.423 2.224-2.39M102.742 15.753c-1.45 0-2.626 1.175-2.626 2.625s1.176 2.625 2.626 2.625 2.625-1.175 2.625-2.625-1.175-2.625-2.625-2.625" transform="translate(-380 -143) translate(0 110) translate(380 33) translate(51.33 8.502)"/>
                    </g>
                    <path fill="#000" d="M0 38L38 38 38 0 0 0z" transform="translate(-380 -143) translate(0 110) translate(380 33)"/>
                    <path fill="#D3A164" d="M22.548 11.48L22.548 16.936 15.459 16.936 15.459 9.552 11.324 11.48 11.324 28.455 15.459 26.527 15.459 21.071 22.548 21.071 22.548 28.455 26.683 26.527 26.683 9.552z" transform="translate(-380 -143) translate(0 110) translate(380 33)"/>
                </g>
            </g>
        </g>
    </g>
</svg>
